<svg xmlns="http://www.w3.org/2000/svg">
    <symbol id="icon-crosshairs-gps" viewBox="0 0 24 24">
        <title>crosshairs-gps</title>
        <path d="M12,8A4,4 0 0,1 16,12A4,4 0 0,1 12,16A4,4 0 0,1 8,12A4,4 0 0,1 12,8M3.05,13H1V11H3.05C3.5,6.83 6.83,3.5 11,3.05V1H13V3.05C17.17,3.5 20.5,6.83 20.95,11H23V13H20.95C20.5,17.17 17.17,20.5 13,20.95V23H11V20.95C6.83,20.5 3.5,17.17 3.05,13M12,5A7,7 0 0,0 5,12A7,7 0 0,0 12,19A7,7 0 0,0 19,12A7,7 0 0,0 12,5Z" />
    </symbol>
    <symbol id="icon-account-arrow-right" viewBox="0 0 24 24">
        <path d="M18 16H14V18H18V20L21 17L18 14V16M11 4C8.8 4 7 5.8 7 8S8.8 12 11 12 15 10.2 15 8 13.2 4 11 4M11 14C6.6 14 3 15.8 3 18V20H12.5C12.2 19.2 12 18.4 12 17.5C12 16.3 12.3 15.2 12.9 14.1C12.3 14.1 11.7 14 11 14" />
    </symbol>
</svg>